<svg id="Layer_1" data-name="Layer 1" xmlns="http://www.w3.org/2000/svg" viewBox="0 0 90 90"><defs><style>.cls-1{fill:#ef534e;}.cls-2{fill:none;stroke:#000;stroke-linecap:round;stroke-linejoin:round;stroke-width:3px;}</style></defs><title>Artboard 1</title><path class="cls-1" d="M36.4,36.92a21,21,0,0,0,3-5.38C41.06,30.9,48,34.23,48,34.23v2.36Z"/><path class="cls-1" d="M52.54,38.94c-2.2-2.2-6.33-4.91-10.2-5.13a6.75,6.75,0,0,0-5.94,3.11c-5.34,8.19-8.26,10.44-8.26,10.44-5.79,3.22-9.31,3.28-12.78,4A9.23,9.23,0,0,0,8.7,56.86a18.3,18.3,0,0,0-1,3.37,20.77,20.77,0,0,0,2.72,14.93C14.73,82.22,21.5,86.6,28.68,86.72c9.69-.41,14.78-3.21,15.7-11.6C44,65,50.27,62.08,52.9,60.36s6-3.4,7-8.37S55.74,42.14,52.54,38.94ZM45.67,56a8.08,8.08,0,1,1,0-11.43A8.08,8.08,0,0,1,45.67,56Z"/><rect class="cls-2" x="47.4" y="22.54" width="32.31" height="7.06" transform="translate(0.18 52.58) rotate(-45)"/><rect class="cls-2" x="73.22" y="2.85" width="12.03" height="15.1" rx="4.23" ry="4.23" transform="translate(15.86 59.07) rotate(-45)"/><path class="cls-2" d="M6.48,74.66a22.77,22.77,0,0,1-3.2-16.12,15.21,15.21,0,0,1,3.9-8.13C11.6,46,16.61,49.67,25,45.08c0,0,3.11-2.37,8.7-11.08a7,7,0,0,1,6.33-3.23c4.17.31,8.67,3.31,11.08,5.72,3.5,3.5,9.17,8.84,8.17,14.18s-4.58,7.08-7.38,8.88S42.46,64.34,43,75.27c-.83,9-6.25,11.92-16.68,12.17C18.64,87.18,11.27,82.34,6.48,74.66Z"/><circle class="cls-2" cx="39.95" cy="50.27" r="8.09" transform="translate(-23.84 42.97) rotate(-45)"/><line class="cls-2" x1="15.04" y1="61.47" x2="26.19" y2="72.61"/></svg>