<svg id="Layer_1" data-name="Layer 1" xmlns="http://www.w3.org/2000/svg" viewBox="0 0 90 90"><defs><style>.cls-1{fill:#f66;}.cls-2,.cls-3{fill:none;stroke:#000;stroke-linecap:round;stroke-linejoin:round;}.cls-2{stroke-width:2.96px;}.cls-3{stroke-width:2.89px;}</style></defs><title>Artboard 10</title><path class="cls-1" d="M68.34,45.42c.17-.37.35-.74.52-1.13l-.52.83c-.39.69-.8,1.36-1.23,2l-37.78,5L29.24,52A27.6,27.6,0,0,1,62,8.48h0c8.68,7.14,9.61,12.8,9.76,23.3A27.42,27.42,0,0,1,68.34,45.42Z"/><path class="cls-1" d="M68.34,45.12c-.39.69-.8,1.36-1.23,2A52.34,52.34,0,0,1,56.64,58.07a28.83,28.83,0,0,0-3.89,3.7C51.08,63.89,49.16,70,49.16,70l-4.56.06-1.12-3.34a29.35,29.35,0,0,0-6.1-6.94,55.09,55.09,0,0,1-8.06-7.74L29.24,52a40.15,40.15,0,0,1-4.62-6.71Z"/><line class="cls-2" x1="52.01" y1="62.6" x2="39.15" y2="62.6"/><path class="cls-2" d="M45.58,3.25S17,21.14,42.63,62.6"/><path class="cls-2" d="M45.58,3.25s28.57,17.89,3,59.35"/><line class="cls-2" x1="49.23" y1="69.44" x2="52.01" y2="77.53"/><line class="cls-2" x1="41.17" y1="69.44" x2="38.42" y2="77.53"/><line class="cls-2" x1="35.72" y1="77.56" x2="54.76" y2="77.56"/><polygon class="cls-2" points="52.01 77.53 38.42 77.53 40.78 87.31 49.7 87.31 52.01 77.53"/><path class="cls-3" d="M69.17,43.57l0-.08A27.61,27.61,0,1,0,25.1,49.35"/><path class="cls-3" d="M20.4,42.55A39.49,39.49,0,0,0,25,49.25l0,0,0,0a56.52,56.52,0,0,0,8.06,7.73,29.3,29.3,0,0,1,6.1,7l2,6.11,3.3,0L49.16,70s1.92-6.15,3.59-8.27a28.82,28.82,0,0,1,3.89-3.7A52.34,52.34,0,0,0,67.1,47.12c.43-.64.84-1.31,1.23-2a30.5,30.5,0,0,0,1.4-2.75"/></svg>