<svg id="Layer_1" data-name="Layer 1" xmlns="http://www.w3.org/2000/svg" viewBox="0 0 90 90"><defs><style>.cls-1,.cls-3{fill:none;}.cls-2{fill:#bdbdbd;}.cls-3{stroke:#333;stroke-miterlimit:10;stroke-width:3px;}</style></defs><title>Artboard 4</title><line class="cls-1" x1="79.74" y1="27.65" x2="79.74" y2="27.65"/><line class="cls-1" x1="75.87" y1="20.95" x2="75.87" y2="20.96"/><line class="cls-1" x1="53.9" y1="33.64" x2="31.46" y2="46.6"/><line class="cls-1" x1="57.77" y1="40.33" x2="35.32" y2="53.29"/><line class="cls-1" x1="68.73" y1="25.08" x2="68.67" y2="25.11"/><path class="cls-2" d="M86.54,23.68l-6.48,3.74-1.6-2.77,5.68-3.28a.92.92,0,0,1,1.25.33Z"/><line class="cls-1" x1="72.59" y1="31.77" x2="72.53" y2="31.81"/><path class="cls-2" d="M77.86,46.55l-8.67,5a1.78,1.78,0,0,1-2.44-.66L50.49,22.74l8.67-5a1.77,1.77,0,0,1,2.44.65Z"/><path class="cls-2" d="M42.68,67.28l-8.67,5a1.78,1.78,0,0,1-2.44-.66L15.31,43.47l8.67-5a1.77,1.77,0,0,1,2.44.65Z"/><line class="cls-1" x1="13.56" y1="65.86" x2="13.56" y2="65.86"/><line class="cls-1" x1="9.7" y1="59.16" x2="9.7" y2="59.16"/><line class="cls-1" x1="16.84" y1="55.04" x2="16.9" y2="55"/><path class="cls-2" d="M10.48,62.77,3.92,66.56a.92.92,0,0,0-.34,1.25l1.25,2a.92.92,0,0,0,1.25.33l6.57-3.79Z"/><line class="cls-1" x1="20.71" y1="61.73" x2="20.76" y2="61.7"/><line class="cls-3" x1="80.02" y1="29.24" x2="80.02" y2="29.24"/><line class="cls-3" x1="76.16" y1="22.55" x2="76.15" y2="22.55"/><polyline class="cls-3" points="31.74 48.19 31.95 48.07 35.3 46.13 54.19 35.23"/><polyline class="cls-3" points="35.61 54.88 35.81 54.76 39.17 52.83 58.05 41.92 58.06 41.92"/><line class="cls-3" x1="69.01" y1="26.67" x2="68.95" y2="26.71"/><path class="cls-3" d="M80.93,28.72l6.57-3.8a.92.92,0,0,0,.34-1.25L86,20.54l-1.15-2a.92.92,0,0,0-1.25-.33L78,21.51l-.89.51"/><line class="cls-3" x1="72.88" y1="33.37" x2="72.82" y2="33.4"/><path class="cls-3" d="M78.26,48.54l-10.74,6.2a1.8,1.8,0,0,1-2.45-.66L58,41.92,55.81,38l-1.62-2.81-2.25-3.89-4.68-8.11a1.79,1.79,0,0,1,.66-2.44L50,19.6l8.67-5a1.77,1.77,0,0,1,2.44.65L77.36,43.41l1.55,2.68A1.79,1.79,0,0,1,78.26,48.54Z"/><path class="cls-3" d="M63.6,17.29l5-2.89a2.87,2.87,0,0,1,4,.69l12.11,21a2.88,2.88,0,0,1-1.38,3.8l-5,2.89"/><line class="cls-3" x1="13.84" y1="67.45" x2="13.85" y2="67.45"/><line class="cls-3" x1="9.98" y1="60.76" x2="9.98" y2="60.75"/><line class="cls-3" x1="17.12" y1="56.63" x2="17.18" y2="56.6"/><path class="cls-3" d="M9.07,61.28,2.5,65.07a.92.92,0,0,0-.34,1.25l2.95,5.11a.92.92,0,0,0,1.25.33L12.93,68"/><line class="cls-3" x1="20.99" y1="63.32" x2="21.05" y2="63.29"/><path class="cls-3" d="M42.18,69.37l-10.74,6.2A1.8,1.8,0,0,1,29,74.91L11.18,44.06a1.79,1.79,0,0,1,.66-2.44l1.8-1,8.94-5.16a1.77,1.77,0,0,1,2.44.65l6.93,12,3.86,6.69,5.77,10,1.25,2.16A1.79,1.79,0,0,1,42.18,69.37Z"/><path class="cls-3" d="M26.41,72.72l-5,2.89a2.88,2.88,0,0,1-4-.7l-12.11-21A2.87,2.87,0,0,1,6.7,50.13l5-2.89"/></svg>