<svg id="Layer_1" data-name="Layer 1" xmlns="http://www.w3.org/2000/svg" viewBox="0 0 90 90"><defs><style>.cls-1{fill:#bdbdbd;}.cls-2{fill:#fc6;}.cls-3{fill:#f66;}.cls-4{fill:none;stroke:#000;stroke-linejoin:round;stroke-width:3px;}.cls-5{fill:#fff;}</style></defs><title>Artboard 8</title><path class="cls-1" d="M54.26,36.83h12.6a0,0,0,0,1,0,0V48.5a0,0,0,0,1,0,0H52.52a0,0,0,0,1,0,0V38.56A1.74,1.74,0,0,1,54.26,36.83Z"/><polygon class="cls-2" points="32.35 66.38 19.2 66.38 17.03 66.38 11.13 7.28 46.16 7.28 42.01 48.8 33.98 53.91 32.35 66.38"/><path class="cls-3" d="M83.87,60.9V74.32A12.45,12.45,0,0,1,71.46,86.72H44.76a12.4,12.4,0,0,1-5.27-1.18,12.37,12.37,0,0,1-3.14-8.23V63.9A12.45,12.45,0,0,1,48.76,51.5h26.7a12.26,12.26,0,0,1,5.27,1.19A12.35,12.35,0,0,1,83.87,60.9Z"/><path class="cls-4" d="M83.87,60.9V74.32A12.45,12.45,0,0,1,71.46,86.72H44.76a12.4,12.4,0,0,1-5.27-1.18A12.65,12.65,0,0,1,35.06,82a12.37,12.37,0,0,1-2.71-7.72V60.9A12.42,12.42,0,0,1,44.76,48.5h26.7A12.46,12.46,0,0,1,83.87,60.9Z"/><rect class="cls-4" x="48.93" y="33.84" width="18.35" height="14.66"/><polyline class="cls-4" points="35.06 82.03 14.02 82.03 14.02 66.38 32.35 66.38"/><polyline class="cls-4" points="32.35 66.38 14.02 66.38 12.43 66.38 6.13 3.27 46.56 3.27 42.01 48.8"/><polyline class="cls-4" points="32.35 66.38 14.02 66.38 12.43 66.38 6.13 3.27 46.56 3.27 42.01 48.8"/><polyline class="cls-5" points="53.83 69.63 51.02 78.13 58.14 72.82 64.97 77.89 62.23 69.77 68.92 64.79 60.56 64.79 57.97 57.09 55.43 64.79 47.3 64.79 53.83 69.63"/></svg>