<svg id="Layer_1" data-name="Layer 1" xmlns="http://www.w3.org/2000/svg" viewBox="0 0 90 90"><defs><style>.cls-1{fill:#bdbdbd;}.cls-2{fill:none;stroke:#000;stroke-linecap:round;stroke-linejoin:round;stroke-width:2.85px;}</style></defs><title>Artboard 2</title><path class="cls-1" d="M45,3.11a41.83,41.83,0,0,0-9.36,1,41.91,41.91,0,0,0,22.3,80.7A41.9,41.9,0,0,0,45,3.11Zm3.59,66.78A25.88,25.88,0,1,1,74.46,44,25.87,25.87,0,0,1,48.59,69.88Z"/><path class="cls-2" d="M86.9,45A41.93,41.93,0,1,1,45,3.11,41.92,41.92,0,0,1,86.9,45Z"/><path d="M65.12,25.15a27.94,27.94,0,0,0-19.88-8.39H45A28.26,28.26,0,0,0,24.67,64.62a28.33,28.33,0,0,0,40,.64,27.89,27.89,0,0,0,8.52-19.81A28.32,28.32,0,0,0,65.12,25.15Zm-31-1.61A3.19,3.19,0,0,1,36,21.83a21.07,21.07,0,0,1,7.75-1.6l1.32-.06h.06A26.23,26.23,0,0,1,53,21.29a9.4,9.4,0,0,1,1.85.89A2.66,2.66,0,0,1,56,25.88a24.79,24.79,0,0,1-2.11,3.74c-1.35,1.85-2.85,3.71-4.42,5.53a5.84,5.84,0,0,1-4.37,2.17H45A5.82,5.82,0,0,1,40.59,35c-1.44-1.76-2.76-3.62-4-5.43l-.66-.93A17.55,17.55,0,0,1,34.38,26,3.17,3.17,0,0,1,34.13,23.54ZM21.09,49a3.52,3.52,0,0,1-1.28-2.69c0-.34,0-.69,0-1v-.37a26.39,26.39,0,0,1,2.28-10.11,17.89,17.89,0,0,1,3.09-5.27,3.8,3.8,0,0,1,2.65-1.54,3.85,3.85,0,0,1,2.71,1.42,35.76,35.76,0,0,1,5.39,7.14,18.83,18.83,0,0,1,1.23,2.36,5.26,5.26,0,0,1-1.93,6.57,7.58,7.58,0,0,1-2.09,1.11c-3.07.94-6.17,1.89-9.25,2.7a4.75,4.75,0,0,1-1.22.18A2.71,2.71,0,0,1,21.09,49ZM42.61,61.28l-.36,5a6.09,6.09,0,0,1-.09.61,3.41,3.41,0,0,1-1.37,2.29,2.67,2.67,0,0,1-1.45.4,5.25,5.25,0,0,1-1.24-.17,21.13,21.13,0,0,1-6.65-3,27.16,27.16,0,0,1-7-6.22,9.51,9.51,0,0,1-1-1.76c-.86-1.88-.39-3.27,1.4-4.13a44.14,44.14,0,0,1,5.23-2.17,41.09,41.09,0,0,1,5.38-1.35,5.93,5.93,0,0,1,4.62.81,6,6,0,0,1,2.29,4.14c.12.85.2,1.74.25,2.72,0,.62,0,1.25,0,1.89ZM45,51.42a6.42,6.42,0,0,1,0-12.83h0A6.36,6.36,0,0,1,51.42,45,6.33,6.33,0,0,1,45,51.42Zm20.46,8.31a27.19,27.19,0,0,1-13,9.68,7.83,7.83,0,0,1-1.93.39l-.4,0a2.6,2.6,0,0,1-2.75-2.34c-.2-1.24-.33-2.47-.43-3.68l-.09-.87h0V59.61c.14-1.38.28-2.76.44-4.13a5.2,5.2,0,0,1,2.06-3.59,5.78,5.78,0,0,1,4.41-1,17.67,17.67,0,0,1,2.95.69c2.43.85,4.81,1.69,7.15,2.65a3.81,3.81,0,0,1,2.5,2.24A3.88,3.88,0,0,1,65.46,59.73ZM70.2,46.12a12,12,0,0,1-.29,1.57,2.54,2.54,0,0,1-2.53,2.12,3.2,3.2,0,0,1-.52,0l-.35,0a27,27,0,0,1-4.48-1,55.32,55.32,0,0,1-6.68-2.67,5.15,5.15,0,0,1-2.45-7.2,32.84,32.84,0,0,1,3-4.67c.75-1,1.56-2,2.35-3,.35-.41.68-.82,1-1.24l.2-.23a3.14,3.14,0,0,1,5.46.23C67.42,33.26,69,37.19,70,42.38c.09.53.15,1.07.21,1.61h0l.12,1.53Z"/></svg>