<svg id="Layer_1" data-name="Layer 1" xmlns="http://www.w3.org/2000/svg" viewBox="0 0 90 90"><defs><style>.cls-1{fill:#8077bf;}.cls-2{fill:#fc6;}.cls-3{fill:none;stroke:#000;stroke-linecap:round;stroke-linejoin:round;stroke-width:3px;}</style></defs><title>Artboard 3</title><path class="cls-1" d="M31.93,71a1.71,1.71,0,0,0,.18.23A4.71,4.71,0,0,0,35.53,73h.63a4.75,4.75,0,0,0,4-2.67s0,0,0,0a4.77,4.77,0,0,0-.62-5.16l5.24-3.51c3.3-2,5.44-.75,8.52,1.52a5.17,5.17,0,0,1-.21,8.45,14.22,14.22,0,0,1-7,2.07c1.15,2.15.24,5.46.09,8.39-.15,2.65-.24,4.1-1.63,4.1a5.45,5.45,0,0,1-2-.53,11.27,11.27,0,0,1-6.42-7.2,9.31,9.31,0,0,1-.31-1.55l-.18,2.15a9.51,9.51,0,0,1-7,7.89,5.17,5.17,0,0,1-6.5-5q0-.23,0-.46a11.31,11.31,0,0,1,4.87-8.33,10.89,10.89,0,0,1,2.11-1.1l1.17-.48-2.48.58A9.49,9.49,0,0,1,18.22,68a5.1,5.1,0,0,1-.83-2.79,5.18,5.18,0,0,1,4-5,11.29,11.29,0,0,1,9.42,2.06,11.05,11.05,0,0,1,1.69,1.67l0,.05-1.25-4.42a9.5,9.5,0,0,1,3.75-9.84c2.91-2.08,3.9-.47,4.86,3l.46,1.16c.92,3.27,2.39,4.16.47,6.91-.45.65-.44,2.5-1,3l-.88.81a4.75,4.75,0,0,0-3.08-1.12,4.68,4.68,0,0,0-2.89,1,1.71,1.71,0,0,0-.23.18A4.79,4.79,0,0,0,31.93,71Z"/><circle class="cls-2" cx="35.66" cy="68.63" r="5.19"/><path class="cls-2" d="M60.58,5.86s-16.15,14.79,0,27.2c2.23-1.62,6.83-5.51,6.91-9.77S61.14,15.31,60.58,5.86Z"/><polyline class="cls-3" points="41.47 32.66 41.42 32.66 41.42 45.61"/><polyline class="cls-3" points="52.13 85.62 75.84 85.62 75.84 32.66 75.74 32.66"/><path class="cls-3" d="M46.41,34.68a21.94,21.94,0,0,1-4.94-2"/><path class="cls-3" d="M75.74,32.66a25.14,25.14,0,0,1-7.07,2.58,47.15,47.15,0,0,1-10.06,1,44.54,44.54,0,0,1-12.19-1.58"/><polyline class="cls-3" points="58.61 36.27 58.61 32.66 58.61 22.25"/><path class="cls-3" d="M54,29.73a14.58,14.58,0,0,1-3.87-9.49c-.21-4.67,1.57-10.92,8.48-18.4-.4,3.59,2,9.51,6.7,16.26a8.09,8.09,0,0,1,1,2,7.16,7.16,0,0,1,0,4.86,16.75,16.75,0,0,1-2.89,4.75"/><line class="cls-3" x1="68.67" y1="35.23" x2="68.67" y2="41.33"/><line class="cls-3" x1="55.54" y1="36.27" x2="55.54" y2="44.61"/><polyline class="cls-3" points="46.41 34.69 46.41 34.69 46.41 40.44"/><path class="cls-3" d="M30.13,65.64A4.78,4.78,0,0,0,29,71.43l-4.32,1A9.51,9.51,0,0,1,15,68.24a5.16,5.16,0,0,1,3.18-7.84,11.3,11.3,0,0,1,9.42,2.05,11.5,11.5,0,0,1,1.7,1.68l.63.75.47.55A1.66,1.66,0,0,0,30.13,65.64Z"/><path class="cls-3" d="M30.13,65.64A4.78,4.78,0,0,0,29,71.43a4.16,4.16,0,0,0,.34.58,4.79,4.79,0,0,0,3.6,2.05h.63a4.78,4.78,0,0,0,4-2.68,4.07,4.07,0,0,0,.32-.88,4.54,4.54,0,0,0,.17-1.23,4.76,4.76,0,0,0-1.11-3.06,4.33,4.33,0,0,0-.61-.61,4.77,4.77,0,0,0-5.95-.17A1.66,1.66,0,0,0,30.13,65.64Z"/><path class="cls-3" d="M33.22,78,33,80.1a9.49,9.49,0,0,1-7,7.89,5.16,5.16,0,0,1-6.49-5c0-.15,0-.31,0-.47a10.92,10.92,0,0,1,7-9.42L29.31,72a4.79,4.79,0,0,0,3.6,2.05l.22,3.09C33.16,77.42,33.18,77.69,33.22,78Z"/><path class="cls-3" d="M41.78,73.16a9.5,9.5,0,0,1,5.35,9.07A5.18,5.18,0,0,1,42,87.13a5.1,5.1,0,0,1-2-.42,11.32,11.32,0,0,1-6.42-7.21A10,10,0,0,1,33.22,78l.33-3.9a4.78,4.78,0,0,0,4-2.68Z"/><path class="cls-3" d="M33.55,74.06,33.22,78c0-.27-.06-.54-.08-.81l-.22-3.09h.63Z"/><path class="cls-3" d="M40.42,53.51A11.28,11.28,0,0,1,38.8,63a11.41,11.41,0,0,1-1.59,1.77l-.88.81a4.77,4.77,0,0,0-5.95-.17l-.47-.55L28.7,60.54a9.5,9.5,0,0,1,3.75-9.84,5.15,5.15,0,0,1,8,2.81Z"/><path class="cls-3" d="M52.71,63.23a5.16,5.16,0,0,1-.21,8.45,10.94,10.94,0,0,1-11.72.44L37.89,70.5a4.54,4.54,0,0,0,.17-1.23,4.76,4.76,0,0,0-1.11-3.06l5.24-3.51A9.5,9.5,0,0,1,52.71,63.23Z"/></svg>