<svg id="Layer_1" data-name="Layer 1" xmlns="http://www.w3.org/2000/svg" viewBox="0 0 90 90"><defs><style>.cls-1{fill:none;stroke:#333;stroke-linejoin:round;stroke-width:3px;}.cls-2{fill:#ef534e;}.cls-3{fill:#5ba4da;}</style></defs><title>Artboard 5</title><path class="cls-1" d="M2.65,39.41H87.35l-1,25.06a5.71,5.71,0,0,1-5.71,5.48H54.81a6.34,6.34,0,0,1-6.07-4.53l-2.3-7.73a1.58,1.58,0,0,0-3,0L40.8,65.59a6.34,6.34,0,0,1-6,4.35H10a5.71,5.71,0,0,1-5.7-5.34Z"/><polygon class="cls-2" points="10.29 46.5 39.73 46.5 34.82 63.22 11.56 63.22 10.29 46.5"/><polygon class="cls-3" points="80.27 46.5 50.82 46.5 55.73 63.22 78.99 63.22 80.27 46.5"/><path class="cls-1" d="M2.65,39.41,20.09,21.67a5.4,5.4,0,0,1,7.05-.57l7.05,5.19a1.77,1.77,0,0,1,.3,2.58h0a1.77,1.77,0,0,1-2.2.39L30.08,28a7.1,7.1,0,0,0-9.53,2.53l-5.36,8.86Z"/><path class="cls-1" d="M87.35,39.41,69.91,21.67a5.4,5.4,0,0,0-7.05-.57L55.8,26.29a1.77,1.77,0,0,0-.3,2.58h0a1.77,1.77,0,0,0,2.2.39L59.92,28a7.1,7.1,0,0,1,9.53,2.53l5.36,8.86Z"/></svg>