<svg id="Layer_1" data-name="Layer 1" xmlns="http://www.w3.org/2000/svg" viewBox="0 0 90 90"><defs><style>.cls-1{fill:none;stroke:#000;stroke-linecap:round;stroke-linejoin:round;stroke-width:3px;}.cls-2{fill:#bdbdbd;}.cls-3{fill:#f66;}.cls-4{fill:#fff;}.cls-5{fill:#333;}.cls-6{fill:#fc6;}</style></defs><title>Artboard 7</title><path class="cls-1" d="M17.27,8.44l-7,1.39a7.76,7.76,0,0,0-6.16,8.82C5.9,29.85,11.45,49.8,28.46,50.14c17.18.34,23.4-19.74,25.52-30.77a7.74,7.74,0,0,0-5.53-8.89L39.55,8"/><circle class="cls-2" cx="43.72" cy="9.1" r="3.27"/><circle class="cls-2" cx="40.23" cy="9.27" r="4.52"/><circle class="cls-2" cx="14.06" cy="9.1" r="3.27"/><circle class="cls-2" cx="17.56" cy="9.27" r="4.52"/><path class="cls-1" d="M28.8,52.83V70.18A13.56,13.56,0,0,0,42.36,83.74h0A13.56,13.56,0,0,0,55.92,70.18V50.54A11.46,11.46,0,0,1,67.38,39.08h0A11.46,11.46,0,0,1,78.84,50.54V65.41"/><circle class="cls-3" cx="78.51" cy="65.79" r="8.96"/><circle class="cls-4" cx="78.51" cy="65.79" r="5.72"/><circle class="cls-5" cx="78.51" cy="65.79" r="2.35"/><path class="cls-6" d="M23.74,46h0A1.71,1.71,0,0,1,25,45.47l7.61-.11a1.71,1.71,0,0,1,1.34.62L34,46a1.71,1.71,0,0,1,.24,1.82l-2.56,5.51a1.71,1.71,0,0,1-1.55,1H27.63a1.71,1.71,0,0,1-1.54-1l-2.64-5.46A1.71,1.71,0,0,1,23.74,46Z"/></svg>