<svg id="Layer_1" data-name="Layer 1" xmlns="http://www.w3.org/2000/svg" viewBox="0 0 90 90"><defs><style>.cls-1{fill:#fc6;}.cls-2,.cls-4{fill:none;stroke:#000;stroke-linecap:round;stroke-linejoin:round;}.cls-2{stroke-width:3.29px;}.cls-3{fill:#f66;}.cls-4{stroke-width:3px;}</style></defs><title>Artboard 9</title><path class="cls-1" d="M47.72,57.07H36.85a11.43,11.43,0,0,1-.95-4.57,11.75,11.75,0,0,1,1.42-5.59L44,53.65Z"/><path class="cls-1" d="M25.28,48.59a11.23,11.23,0,0,1-4.06,8.65,11.11,11.11,0,0,1-3.66.61,11.25,11.25,0,0,1-7.22-19.9A11.13,11.13,0,0,1,14,37.33,11.27,11.27,0,0,1,25.28,48.59Z"/><circle cx="58.61" cy="53.84" r="6"/><path class="cls-2" d="M15.92,37.49s4-6.43,6.76-6.43,4.88,4.5,7.5,4.5,5.5-5.75,8-5.75,4.13,1.25,4.88,5,2.88,4.63,6.63,3.5,7.49,2.86,6.88,6.5"/><path class="cls-3" d="M87.39,39.05a19,19,0,0,1-19,19c-10.52,0-18.29-8.56-19-19V39c-.15-2.11-.21-4.14-.18-6.08a4.48,4.48,0,0,1,.26-1.5,11.19,11.19,0,0,1,19.33-2.92c.14.18.28.38.42.58a11.2,11.2,0,0,0,17.7,0C87.43,34.93,87.39,39.05,87.39,39.05Z"/><rect class="cls-3" x="54.7" y="49.12" width="9.08" height="6.37" rx="3.18" ry="3.18"/><path class="cls-2" d="M3.29,58.21C6.21,71.22,19.82,81,36.15,81S66.06,71.22,69,58.21Z"/><path class="cls-4" d="M49.31,39.16c.75,10.49,8.53,19,19,19a19,19,0,0,0,19-19S87.53,22.84,82.69,9c-4.5-.35-28.74,0-28.74,0S48,21.15,49.31,39.16Z"/><line class="cls-4" x1="68.35" y1="58.21" x2="68.35" y2="77.57"/><line class="cls-4" x1="79.27" y1="77.57" x2="57.43" y2="77.57"/><path class="cls-2" d="M8.15,58.22a11.27,11.27,0,0,1,2.19-20.27A11.13,11.13,0,0,1,14,37.33a11.26,11.26,0,0,1,7.21,19.91,9.87,9.87,0,0,1-1.35,1"/><path class="cls-2" d="M49,58.22H33.23a11.43,11.43,0,0,1-1-4.57,11.73,11.73,0,0,1,3.47-8.33l1.57,1.59L44,53.65l3.75,3.42Z"/><path d="M12.21,48.76c0,1-1.19,1.73-2.67,1.73s-2.12-.78-2.12-1.73S8.07,47,9.55,47,12.21,47.8,12.21,48.76Z"/><path d="M15.92,48.76c0,1,1.19,1.73,2.67,1.73s2.12-.78,2.12-1.73S20.06,47,18.59,47,15.92,47.8,15.92,48.76Z"/><path d="M14.07,46.91c-1,0-1.73-1.19-1.73-2.67s.78-2.12,1.73-2.12,1.73.65,1.73,2.12S15,46.91,14.07,46.91Z"/><path d="M14.07,50.61c-1,0-1.73,1.19-1.73,2.67s.78,2.12,1.73,2.12,1.73-.65,1.73-2.12S15,50.61,14.07,50.61Z"/></svg>