<?xml version="1.0" encoding="utf-8"?>
<!-- Generator: Adobe Illustrator 21.0.0, SVG Export Plug-In . SVG Version: 6.00 Build 0)  -->
<svg version="1.1" id="Layer_1" xmlns="http://www.w3.org/2000/svg" xmlns:xlink="http://www.w3.org/1999/xlink" x="0px" y="0px"
	 viewBox="0 0 216.4 73.8" style="enable-background:new 0 0 216.4 73.8;" xml:space="preserve">
<style type="text/css">
	.st0{fill:#FFFFFF;}
</style>
<title>Artboard 1</title>
<path class="st0" d="M139.8,64.5h-3.2v-4.3h3.2C142.4,60.2,142.3,64.5,139.8,64.5 M143.5,67.5c4.4-3,3.2-11.3-3.7-11.3h-7.7v17.6
	h4.5v-5.2h2.3l3,5.2h5v-0.7L143.5,67.5z M127.1,56.1h-11v17.6h11.2v-4h-6.7v-3.1h6v-4h-6v-2.5h6.5V56.1z M105.1,60.1
	c0.8,0,1.4,0.7,1.4,1.5s-0.6,1.4-1.4,1.4h-2.8v-2.9H105.1z M105.9,66.7c1.8,0,1.8,3,0,3h-3.6v-3H105.9z M111,61.5
	c0-3-2.4-5.4-5.4-5.4h-0.1H98v17.6h8.2c3.6,0,5.4-2.5,5.5-5.5c0.1-1.5-0.7-2.9-2.1-3.6C110.5,63.8,111,62.7,111,61.5L111,61.5z
	 M84,63.7l-6.9-7.6h-1.7v17.6H80v-7.8l3.7,3.9h0.5l3.7-3.9v7.8h4.6V56.1H91L84,63.7z M70.4,56.1h-11v17.6h11.2v-4h-6.7v-3.1h6v-4h-6
	v-2.5h6.5V56.1z M45.4,63.7l-6.9-7.6h-1.7v17.6h4.6v-7.8l3.7,3.9h0.5l3.7-3.9v7.8h4.6V56.1h-1.6L45.4,63.7z M31.9,56.1h-11v17.6
	h11.2v-4h-6.7v-3.1h6v-4h-6v-2.5h6.5V56.1z M10.1,64.5H6.9v-4.4h3.2C12.7,60.2,12.5,64.5,10.1,64.5z M13.8,67.5
	c4.4-3,3.2-11.3-3.7-11.3H2.4v17.6h4.5v-5.2h2.3l3,5.2h5v-0.7L13.8,67.5z M203,39.3c-0.2-2.4,1.7-4.5,4.1-4.7
	c2.4-0.2,4.5,1.7,4.7,4.1c0,0.2,0,0.4,0,0.6C211.8,45.7,203,45.7,203,39.3z M216.4,39.3c0-12.1-18-12.1-18,0S216.4,51.5,216.4,39.3
	L216.4,39.3z M187,34.5v13.6h4.4V34.5h4.3v-4h-13.1v4H187z M166.7,38.8h-3.2v-4.3h3.2C169.2,34.5,169.1,38.8,166.7,38.8z
	 M170.4,41.8c4.4-3,3.2-11.3-3.7-11.3H159v17.6h4.5v-5.2h2.3l3,5.2h5v-0.7L170.4,41.8z M154,30.5h-11v17.6h11.2v-4h-6.7V41h6v-4h-6
	v-2.5h6.5V30.5z M132,34.5c0.8,0,1.4,0.6,1.4,1.5c0,0.8-0.6,1.4-1.4,1.4h-2.8v-2.9H132z M132.7,41.1c1.8,0,1.8,3,0,3h-3.6v-3H132.7z
	 M137.8,35.9c0-3-2.4-5.4-5.4-5.4h-0.1h-7.5v17.6h8.2c3.6,0,5.4-2.5,5.5-5.5c0.1-1.5-0.7-2.9-2.1-3.6
	C137.3,38.2,137.8,37.1,137.8,35.9z M110.8,38.1l-6.9-7.6h-1.7v17.6h4.6v-7.8l3.7,3.9h0.5l3.7-3.9v7.8h4.6V30.4h-1.6L110.8,38.1z
	 M97.3,30.5h-11v17.6h11.2v-4h-6.7V41h6v-4h-6v-2.5h6.5V30.5z M64.6,39.3c0,6,4.5,9,9,9c3.7,0,7.7-2,8.3-6.9h-4.4
	c-0.4,1.8-2.1,3-3.9,2.8c-2.7,0-4.4-2.3-4.4-4.9c0-2.9,1.7-4.9,4.4-4.9c1.7-0.2,3.3,0.9,3.8,2.6h4.4c-0.7-4.7-4.6-6.7-8.3-6.7
	c-4.8-0.2-8.7,3.6-8.9,8.3C64.6,38.9,64.6,39.1,64.6,39.3z M60.6,30.5h-11v17.6h11.2v-4h-6.7V41h6v-4h-6v-2.5h6.5V30.5z M34.5,34.6
	h2.1c5.6,0,5.6,9.4,0,9.4h-2.1V34.6z M36.7,30.5H30v17.6h6.6C48.1,48,48.1,30.5,36.7,30.5z M13,42H9l2-4.6L13,42z M15.5,48h4.4v-0.7
	L12,30.2h-2L2.1,47.3V48h4.4l1-2.2h6.9L15.5,48z"/>
<g>
	<path class="st0" d="M1.7,5.2c0.2,0,0.2,0.1,0.3,0.2c0.3,0.3,1.1,0.2,1.5,0.2C9.6,5.1,17,0,23.4,0c1.7,0,3.1,0.8,3.8,2.5
		C27.5,4,26.6,5.9,25,6.4c-0.3,0.1-0.6,0.2-1,0.2c-1.6,0-2.7-1.3-2.9-2.6c0.2-0.3,0.4-0.3,0.5-0.2c0.1,0.6,0.9,2.3,2.1,2.1
		c1.3-0.3,1.9-1.9,1.8-2.9c-0.3-3.2-4.9-1.2-8.1-0.2C16.2,3.3,15.4,3.6,14,4c-0.1,2.1-0.3,3.4-0.6,4.9c-0.4,1.6-0.7,3.4-1.2,5.3
		c-0.8,3.1-2.1,6.2-4.8,7.7c-1.2,0.6-2.6,0.8-3.9,0.4c-2.6-0.7-3.9-3.2-3.5-6C0.4,14,2,12,4.2,11.8c2.4-0.2,3.3,2.2,3.1,4.3
		c0,0.3,0,1-0.4,1c-0.3,0-0.2-0.4-0.2-0.6c0.1-1.2-0.1-3.3-1.3-3.5c-1.1-0.3-3,1.6-3.6,3.6c-0.7,2.3,0.2,4.8,1.9,5
		c3.9,0.2,5.7-5.2,6.5-8.2c0.6-2.4,1-4.7,1.4-6.9c0.2-0.8,0.2-1.3,0.2-1.6l0-0.1C9.3,5.5,6.8,6.5,4.5,6.5C3.7,6.5,2,6.4,1.6,5.7
		C1.5,5.6,1.5,5.3,1.7,5.2z"/>
	<path class="st0" d="M17.5,10.8c0.2-0.3,0.4-0.6,0.6-0.9c0.9-1.3,1.8-2.9,3.1-2.9c0.9,0,1.1,0.6,1.1,1.5c-0.1,0.9-0.5,2.1-0.9,3.1
		c-0.4,1-0.7,2.1-0.8,2.8c0,0.3,0,0.9,0.3,0.9c0.8,0,3-4.4,3.1-4.7l0-0.1h0c0.1-0.2,0.1-0.3,0.3-0.3c0.1,0,0.2,0.1,0.3,0.2l-0.4,0.7
		c-1,1.9-2.5,5.1-4,5.1c-1.1,0-1.5-0.7-1.5-1.6c0-0.1,0-0.3,0-0.4c0.2-1.2,0.8-2.9,1.2-4.2c0.3-0.9,0.6-1.6,0.6-1.9
		c0-0.2,0-0.2-0.1-0.2c-0.9,0-2.7,3.1-3.3,4.2v0l-0.2,0.3h0c-0.3,0.6-0.5,1.6-0.5,2.3c0,0.6,0,1,0.1,1.2c0,0.1,0,0.1,0,0.2
		c0,0.1-0.1,0.2-0.3,0.2c-1.2,0-1.5-1-1.5-2c0-0.2,0-0.3,0-0.5c0.1-1.1,0.7-3.6,1.2-5.9c0.4-1.8,0.8-3.5,0.9-4.1c0-0.3,0-0.4,0-0.6
		c0-0.1,0-0.2,0-0.2C17,3,17.2,3,17.4,3c1.2,0,1.4,0.9,1.4,1.7c0,0.5-0.5,2.6-0.9,4.3L17.5,10.8z"/>
	<path class="st0" d="M24.6,8.6c0-0.1,0-0.3,0-0.3c0-0.1,0-0.2,0-0.2c0.1-0.2,0.3-0.2,0.5-0.2c0.7,0.2,1,0.5,1,1
		c0,0.2-0.1,0.5-0.2,0.8c-0.3,1-0.8,3.1-1,4.4c0,0.2,0,0.4,0,0.5c0,0.6,0.1,0.9,0.4,0.9c0.7,0,2.1-2.6,2.8-4.1
		c0.2-0.4,0.4-0.7,0.5-0.9c0.1,0,0.1-0.1,0.2-0.1c0.1,0,0.2,0.1,0.3,0.2L29,10.9c-0.9,1.9-2.8,5.6-4.2,5.6c-1.1,0-1.5-1-1.5-2.2
		c0-0.2,0-0.4,0-0.6c0.1-1.6,0.6-3.1,1.1-4.6L24.6,8.6L24.6,8.6z M27,6.3c0,0.5-0.6,0.9-1,0.9c-0.4,0-0.7-0.3-0.7-1
		c0-0.5,0.4-1.1,0.8-1.1c0.2,0,0.4,0.1,0.6,0.4C27,5.8,27,6.1,27,6.3z"/>
	<path class="st0" d="M29.5,5.3c0.6,0,1.1,0.3,1.1,0.9c0,0.5-0.3,1.2-0.6,1.9c-0.1,0.4-0.3,0.7-0.4,1.1c1.2,1.8,2.3,3.9,2.4,5
		c0.7-1.1,1.5-2.5,1.8-3.3c0,0,0-0.1,0-0.1l0.1-0.2h0c0.1-0.2,0.1-0.3,0.3-0.3c0.1,0,0.3,0.1,0.3,0.2l-0.1,0.1l0,0
		c-0.7,1.4-2.2,4.4-3.5,5.3C30.2,16.7,29,17,28.1,17c-1.1,0-1.9-0.4-1.8-1.2c0-0.2,0.3-0.5,0.5-0.5c0.2,0,0.2,0.2,0.2,0.4
		c0,0.5,0.6,0.6,1,0.6c1.3,0,1.8-0.9,1.9-2.2c0-0.9-0.5-2.3-1.1-3.2l-0.5,1.2l-0.4-0.2l0.6-1.5c-0.6-0.7-0.9-1.7-0.9-2.7
		c0-0.8,0.2-1.5,0.9-2.1C28.7,5.4,29.1,5.3,29.5,5.3z M29.3,8.4c0.3-0.7,0.7-1.8,0.6-2h0c0-0.1-0.1-0.1-0.2-0.2
		c-0.3,0-0.7,0.9-0.7,1.8c0,0.3,0,0.5,0.1,0.7L29.3,8.4z"/>
	<path class="st0" d="M40.6,8.6c0-0.1,0-0.3,0-0.3c0-0.1,0-0.2,0-0.2c0.1-0.2,0.3-0.2,0.5-0.2c0.7,0.2,1,0.5,1,1
		c0,0.2-0.1,0.5-0.2,0.8c-0.3,1-0.8,3.1-1,4.4c0,0.2,0,0.4,0,0.5c0,0.6,0.1,0.9,0.4,0.9c0.7,0,2.1-2.6,2.8-4.1
		c0.2-0.4,0.4-0.7,0.5-0.9c0.1,0,0.1-0.1,0.2-0.1c0.1,0,0.2,0.1,0.3,0.2L45,10.9c-0.9,1.9-2.8,5.6-4.2,5.6c-1.1,0-1.5-1-1.5-2.2
		c0-0.2,0-0.4,0-0.6c0.1-1.6,0.6-3.1,1.1-4.6L40.6,8.6L40.6,8.6z M43,6.3c0,0.5-0.6,0.9-1,0.9c-0.4,0-0.7-0.3-0.7-1
		c0-0.5,0.4-1.1,0.8-1.1c0.2,0,0.4,0.1,0.6,0.4C42.9,5.8,43,6.1,43,6.3z"/>
	<path class="st0" d="M45.5,5.3c0.6,0,1.1,0.3,1.1,0.9c0,0.5-0.3,1.2-0.6,1.9c-0.1,0.4-0.3,0.7-0.4,1.1c1.2,1.8,2.3,3.9,2.4,5
		c0.7-1.1,1.5-2.5,1.8-3.3c0,0,0-0.1,0-0.1l0.1-0.2h0c0.1-0.2,0.1-0.3,0.3-0.3c0.1,0,0.3,0.1,0.3,0.2l-0.1,0.1l0,0
		c-0.7,1.4-2.2,4.4-3.5,5.3C46.1,16.7,45,17,44.1,17c-1.1,0-1.9-0.4-1.8-1.2c0-0.2,0.3-0.5,0.5-0.5c0.2,0,0.2,0.2,0.2,0.4
		c0,0.5,0.6,0.6,1,0.6c1.3,0,1.8-0.9,1.9-2.2c0-0.9-0.5-2.3-1.1-3.2l-0.5,1.2l-0.4-0.2l0.6-1.5c-0.6-0.7-0.9-1.7-0.9-2.7
		c0-0.8,0.2-1.5,0.9-2.1C44.7,5.4,45.1,5.3,45.5,5.3z M45.3,8.4c0.3-0.7,0.7-1.8,0.6-2h0c0-0.1-0.1-0.1-0.2-0.2
		C45.5,6.2,45,7.1,45,8c0,0.3,0,0.5,0.1,0.7L45.3,8.4z"/>
</g>
</svg>
